<svg xmlns="http://www.w3.org/2000/svg" xmlns:xlink="http://www.w3.org/1999/xlink" width="200" zoomAndPan="magnify" viewBox="0 0 150 149.999998" height="200" preserveAspectRatio="xMidYMid meet" version="1.0"><defs><clipPath id="id1"><path d="M 4.71875 19.039062 L 144.96875 19.039062 L 144.96875 130.789062 L 4.71875 130.789062 Z M 4.71875 19.039062 " clip-rule="nonzero"/></clipPath></defs><path fill="rgb(0%, 91.369629%, 99.609375%)" d="M 25.714844 35.09375 L 25.714844 39.902344 C 25.714844 48.699219 30.519531 56.746094 38.25 60.902344 C 38.554688 61.066406 38.890625 61.148438 39.226562 61.148438 C 39.5625 61.148438 39.898438 61.066406 40.203125 60.902344 C 47.9375 56.746094 52.738281 48.699219 52.738281 39.902344 L 52.738281 35.09375 C 52.738281 34.296875 52.28125 33.570312 51.5625 33.230469 L 40.5 27.976562 C 39.695312 27.59375 38.753906 27.59375 37.953125 27.976562 L 26.894531 33.230469 C 26.171875 33.570312 25.714844 34.296875 25.714844 35.09375 Z M 39.226562 56.707031 C 34.808594 53.996094 31.6875 49.6875 30.441406 44.75 L 48.011719 44.75 C 46.765625 49.6875 43.644531 53.996094 39.226562 56.707031 Z M 29.839844 36.398438 L 39.226562 31.941406 L 48.613281 36.398438 L 48.613281 39.902344 C 48.613281 40.144531 48.609375 40.382812 48.601562 40.621094 L 29.855469 40.621094 C 29.84375 40.382812 29.839844 40.144531 29.839844 39.902344 Z M 29.839844 36.398438 " fill-opacity="1" fill-rule="nonzero"/><path fill="rgb(0%, 91.369629%, 99.609375%)" d="M 109.472656 27.976562 L 98.410156 33.230469 C 97.691406 33.570312 97.234375 34.296875 97.234375 35.09375 L 97.234375 39.902344 C 97.234375 48.699219 102.039062 56.746094 109.769531 60.902344 C 110.074219 61.066406 110.410156 61.148438 110.746094 61.148438 C 111.082031 61.148438 111.417969 61.066406 111.722656 60.902344 C 119.457031 56.746094 124.257812 48.699219 124.257812 39.902344 L 124.257812 35.09375 C 124.257812 34.296875 123.800781 33.570312 123.082031 33.230469 L 112.019531 27.976562 C 111.214844 27.59375 110.273438 27.59375 109.472656 27.976562 Z M 101.359375 39.902344 L 101.359375 36.398438 L 108.683594 32.921875 L 108.683594 55.25 C 104.097656 51.550781 101.359375 45.941406 101.359375 39.902344 Z M 120.132812 39.902344 C 120.132812 45.941406 117.394531 51.550781 112.808594 55.25 L 112.808594 32.917969 L 120.132812 36.398438 Z M 120.132812 39.902344 " fill-opacity="1" fill-rule="nonzero"/><g clip-path="url(#id1)"><path fill="rgb(0%, 91.369629%, 99.609375%)" d="M 141.3125 51.015625 L 130.523438 51.015625 C 131.828125 47.472656 132.507812 43.714844 132.507812 39.902344 L 132.507812 31.261719 C 132.507812 29.625 131.554688 28.117188 130.078125 27.414062 L 125.261719 25.128906 C 124.234375 24.640625 123.003906 25.078125 122.515625 26.105469 C 122.027344 27.136719 122.464844 28.367188 123.496094 28.855469 L 128.308594 31.144531 C 128.355469 31.164062 128.382812 31.210938 128.382812 31.261719 L 128.382812 39.902344 C 128.382812 50.53125 122.492188 60.105469 113.007812 64.886719 C 111.589844 65.601562 109.902344 65.601562 108.484375 64.886719 C 99 60.105469 93.109375 50.53125 93.109375 39.902344 L 93.109375 31.261719 C 93.109375 31.210938 93.136719 31.164062 93.183594 31.144531 L 107.703125 24.246094 C 109.636719 23.328125 111.855469 23.328125 113.789062 24.246094 L 115.527344 25.074219 C 116.558594 25.5625 117.789062 25.121094 118.277344 24.09375 C 118.765625 23.0625 118.328125 21.832031 117.296875 21.34375 L 115.558594 20.515625 C 112.5 19.066406 108.992188 19.066406 105.933594 20.515625 L 91.414062 27.414062 C 89.9375 28.117188 88.984375 29.625 88.984375 31.261719 L 88.984375 39.902344 C 88.984375 43.714844 89.664062 47.472656 90.96875 51.015625 L 59.003906 51.015625 C 60.308594 47.472656 60.988281 43.714844 60.988281 39.902344 L 60.988281 31.261719 C 60.988281 29.625 60.035156 28.117188 58.558594 27.414062 L 44.039062 20.515625 C 40.980469 19.066406 37.472656 19.066406 34.414062 20.515625 L 31.558594 21.875 C 30.527344 22.363281 30.089844 23.59375 30.578125 24.625 C 31.066406 25.65625 32.296875 26.09375 33.328125 25.605469 L 36.183594 24.246094 C 38.117188 23.328125 40.335938 23.328125 42.269531 24.246094 L 56.789062 31.144531 C 56.835938 31.164062 56.863281 31.210938 56.863281 31.261719 L 56.863281 39.902344 C 56.863281 50.53125 50.972656 60.105469 41.488281 64.886719 C 40.074219 65.601562 38.382812 65.601562 36.964844 64.886719 C 27.480469 60.105469 21.589844 50.53125 21.589844 39.902344 L 21.589844 31.261719 C 21.589844 31.210938 21.621094 31.164062 21.664062 31.144531 L 25.382812 29.375 C 26.414062 28.886719 26.851562 27.65625 26.363281 26.625 C 25.875 25.597656 24.644531 25.15625 23.617188 25.648438 L 19.894531 27.414062 C 18.417969 28.117188 17.464844 29.625 17.464844 31.261719 L 17.464844 39.902344 C 17.464844 43.714844 18.144531 47.472656 19.449219 51.015625 L 8.386719 51.015625 C 6.363281 51.015625 4.71875 52.660156 4.71875 54.6875 L 4.71875 59.609375 C 4.71875 60.441406 5.007812 61.257812 5.527344 61.90625 L 14.277344 72.800781 L 14.277344 80.996094 C 14.277344 82.433594 15.113281 83.679688 16.320312 84.28125 L 16.320312 103.203125 C 16.320312 104.34375 17.246094 105.269531 18.382812 105.269531 C 19.523438 105.269531 20.445312 104.34375 20.445312 103.203125 L 20.445312 84.664062 L 129.222656 84.664062 L 129.222656 124.363281 C 129.222656 125.617188 128.203125 126.640625 126.949219 126.640625 L 22.722656 126.640625 C 21.46875 126.640625 20.445312 125.617188 20.445312 124.363281 L 20.445312 112 C 20.445312 110.859375 19.523438 109.9375 18.382812 109.9375 C 17.246094 109.9375 16.320312 110.859375 16.320312 112 L 16.320312 124.363281 C 16.320312 127.894531 19.191406 130.765625 22.722656 130.765625 L 126.949219 130.765625 C 130.476562 130.765625 133.347656 127.894531 133.347656 124.363281 L 133.347656 84.292969 C 134.570312 83.699219 135.417969 82.445312 135.417969 80.996094 L 135.417969 72.800781 L 144.171875 61.90625 C 144.691406 61.257812 144.980469 60.441406 144.980469 59.609375 L 144.980469 54.6875 C 144.980469 52.660156 143.335938 51.015625 141.3125 51.015625 Z M 8.84375 59.445312 L 8.84375 55.144531 L 21.3125 55.144531 C 21.605469 55.683594 21.90625 56.214844 22.230469 56.738281 C 25.347656 61.804688 29.800781 65.898438 35.109375 68.574219 C 36.398438 69.222656 37.8125 69.550781 39.226562 69.550781 C 40.640625 69.546875 42.054688 69.222656 43.34375 68.574219 C 48.652344 65.898438 53.109375 61.804688 56.226562 56.738281 C 56.546875 56.214844 56.851562 55.683594 57.140625 55.144531 L 72.785156 55.144531 L 72.785156 80.539062 L 18.40625 80.539062 L 18.40625 72.640625 C 18.40625 71.808594 18.117188 70.992188 17.59375 70.339844 Z M 140.855469 59.445312 L 132.101562 70.339844 C 131.582031 70.992188 131.292969 71.808594 131.292969 72.640625 L 131.292969 80.539062 L 76.910156 80.539062 L 76.910156 55.144531 L 92.832031 55.144531 C 93.125 55.683594 93.425781 56.214844 93.75 56.738281 C 96.867188 61.804688 101.320312 65.898438 106.628906 68.574219 C 107.917969 69.222656 109.332031 69.550781 110.746094 69.550781 C 112.160156 69.550781 113.574219 69.222656 114.863281 68.574219 C 120.171875 65.898438 124.625 61.804688 127.742188 56.738281 C 128.066406 56.214844 128.367188 55.683594 128.660156 55.144531 L 140.855469 55.144531 Z M 140.855469 59.445312 " fill-opacity="1" fill-rule="nonzero"/></g><path fill="rgb(0%, 91.369629%, 99.609375%)" d="M 79.570312 107.910156 C 80.710938 107.910156 81.632812 106.984375 81.632812 105.84375 C 81.632812 104.707031 80.710938 103.78125 79.570312 103.78125 L 70.195312 103.78125 C 69.058594 103.78125 68.132812 104.707031 68.132812 105.84375 C 68.132812 106.984375 69.058594 107.910156 70.195312 107.910156 Z M 79.570312 107.910156 " fill-opacity="1" fill-rule="nonzero"/><path fill="rgb(0%, 91.369629%, 99.609375%)" d="M 51.566406 119.9375 C 52.707031 119.9375 53.628906 119.011719 53.628906 117.871094 L 53.628906 94.050781 C 53.628906 92.910156 52.707031 91.984375 51.566406 91.984375 L 46.480469 91.984375 C 45.339844 91.984375 44.417969 92.910156 44.417969 94.050781 C 44.417969 95.191406 45.339844 96.113281 46.480469 96.113281 L 49.503906 96.113281 L 49.503906 117.871094 C 49.503906 119.011719 50.429688 119.9375 51.566406 119.9375 Z M 51.566406 119.9375 " fill-opacity="1" fill-rule="nonzero"/><path fill="rgb(0%, 91.369629%, 99.609375%)" d="M 104.328125 101.183594 C 104.34375 101.117188 104.355469 101.046875 104.363281 100.980469 L 104.480469 100.058594 C 104.492188 99.972656 104.5 99.882812 104.5 99.796875 C 104.5 95.296875 100.839844 91.636719 96.34375 91.636719 C 92.457031 91.636719 89.09375 94.40625 88.34375 98.21875 C 88.125 99.335938 88.851562 100.421875 89.96875 100.640625 C 91.089844 100.859375 92.171875 100.132812 92.390625 99.011719 C 92.761719 97.132812 94.421875 95.765625 96.34375 95.765625 C 98.527344 95.765625 100.308594 97.511719 100.371094 99.679688 L 100.285156 100.347656 C 99.976562 101.609375 99.238281 103.074219 98.097656 104.707031 C 98.089844 104.714844 98.085938 104.726562 98.078125 104.734375 L 90.320312 116.210938 C 89.808594 116.96875 89.757812 117.941406 90.1875 118.746094 C 90.613281 119.554688 91.445312 120.054688 92.359375 120.054688 L 103.496094 120.054688 C 104.632812 120.054688 105.558594 119.128906 105.558594 117.992188 C 105.558594 116.851562 104.632812 115.925781 103.496094 115.925781 L 95.492188 115.925781 L 101.488281 107.058594 C 102.957031 104.957031 103.910156 102.980469 104.328125 101.183594 Z M 104.328125 101.183594 " fill-opacity="1" fill-rule="nonzero"/></svg>