<svg xmlns="http://www.w3.org/2000/svg" xmlns:xlink="http://www.w3.org/1999/xlink" width="200" zoomAndPan="magnify" viewBox="0 0 150 149.999998" height="200" preserveAspectRatio="xMidYMid meet" version="1.0"><defs><clipPath id="id1"><path d="M 9.410156 46 L 44 46 L 44 87 L 9.410156 87 Z M 9.410156 46 " clip-rule="nonzero"/></clipPath><clipPath id="id2"><path d="M 94 19.003906 L 111 19.003906 L 111 115 L 94 115 Z M 94 19.003906 " clip-rule="nonzero"/></clipPath><clipPath id="id3"><path d="M 16 82 L 48 82 L 48 130.753906 L 16 130.753906 Z M 16 82 " clip-rule="nonzero"/></clipPath></defs><g clip-path="url(#id1)"><path fill="rgb(0.389099%, 90.979004%, 99.609375%)" d="M 41.992188 86.386719 L 16.597656 86.386719 C 12.714844 86.382812 9.570312 83.242188 9.566406 79.371094 L 9.566406 53.957031 C 9.570312 50.085938 12.714844 46.949219 16.597656 46.941406 L 41.992188 46.941406 C 43.019531 46.941406 43.851562 47.773438 43.851562 48.800781 L 43.851562 84.53125 C 43.851562 85.558594 43.019531 86.386719 41.992188 86.386719 Z M 16.597656 50.65625 C 14.769531 50.660156 13.292969 52.136719 13.289062 53.957031 L 13.289062 79.371094 C 13.289062 81.195312 14.769531 82.671875 16.597656 82.675781 L 40.128906 82.675781 L 40.128906 50.65625 Z M 16.597656 50.65625 " fill-opacity="1" fill-rule="nonzero"/></g><path fill="rgb(0.389099%, 90.979004%, 99.609375%)" d="M 96.152344 108.292969 C 95.914062 108.292969 95.675781 108.242188 95.453125 108.152344 L 41.289062 86.25 C 40.585938 85.964844 40.125 85.285156 40.125 84.53125 L 40.125 48.800781 C 40.125 48.042969 40.585938 47.363281 41.289062 47.078125 L 95.453125 25.175781 C 96.675781 24.679688 98.015625 25.578125 98.011719 26.894531 L 98.011719 106.433594 C 98.011719 107.460938 97.179688 108.292969 96.152344 108.292969 Z M 43.851562 83.277344 L 94.292969 103.675781 L 94.292969 29.652344 L 43.851562 50.050781 Z M 43.851562 83.277344 " fill-opacity="1" fill-rule="nonzero"/><g clip-path="url(#id2)"><path fill="rgb(0.389099%, 90.979004%, 99.609375%)" d="M 102.527344 114.320312 C 97.980469 114.316406 94.292969 110.640625 94.289062 106.105469 L 94.289062 27.214844 C 94.289062 22.679688 97.980469 19 102.527344 19 C 107.078125 19 110.765625 22.679688 110.765625 27.214844 L 110.765625 106.105469 C 110.761719 110.640625 107.078125 114.316406 102.527344 114.320312 Z M 102.527344 22.71875 C 100.035156 22.71875 98.015625 24.738281 98.011719 27.222656 L 98.011719 106.113281 C 98.011719 108.601562 100.035156 110.617188 102.527344 110.617188 C 105.023438 110.617188 107.042969 108.601562 107.042969 106.113281 L 107.042969 27.222656 C 107.042969 24.738281 105.023438 22.71875 102.527344 22.71875 Z M 102.527344 22.71875 " fill-opacity="1" fill-rule="nonzero"/></g><g clip-path="url(#id3)"><path fill="rgb(0.389099%, 90.979004%, 99.609375%)" d="M 41.507812 130.75 L 29.558594 130.75 C 26.800781 130.75 24.433594 128.789062 23.929688 126.085938 L 16.234375 84.875 C 16.015625 83.734375 16.898438 82.675781 18.0625 82.675781 L 37.878906 82.675781 C 38.777344 82.675781 39.542969 83.3125 39.707031 84.191406 L 47.140625 123.996094 C 47.453125 125.664062 47 127.386719 45.914062 128.691406 C 44.824219 129.996094 43.210938 130.75 41.507812 130.75 Z M 20.304688 86.386719 L 27.589844 125.40625 C 27.765625 126.351562 28.59375 127.039062 29.558594 127.039062 L 41.507812 127.039062 C 42.105469 127.039062 42.671875 126.773438 43.050781 126.316406 C 43.429688 125.859375 43.589844 125.257812 43.480469 124.675781 L 36.332031 86.386719 Z M 20.304688 86.386719 " fill-opacity="1" fill-rule="nonzero"/></g><path fill="rgb(0.389099%, 90.979004%, 99.609375%)" d="M 108.90625 80.875 C 107.878906 80.875 107.042969 80.042969 107.042969 79.019531 L 107.042969 54.308594 C 107.042969 53.28125 107.878906 52.453125 108.90625 52.453125 C 116.710938 52.539062 122.996094 58.878906 122.996094 66.664062 C 122.996094 74.449219 116.710938 80.785156 108.90625 80.875 Z M 110.765625 56.328125 L 110.765625 77 C 115.785156 76.101562 119.4375 71.75 119.4375 66.664062 C 119.4375 61.578125 115.785156 57.226562 110.765625 56.328125 Z M 110.765625 56.328125 " fill-opacity="1" fill-rule="nonzero"/><path fill="rgb(0.389099%, 90.979004%, 99.609375%)" d="M 125.617188 51.871094 C 123.855469 51.871094 123.078125 49.65625 124.460938 48.5625 L 129.605469 44.492188 C 131.554688 42.957031 133.867188 45.867188 131.917969 47.40625 L 126.773438 51.46875 C 126.445312 51.730469 126.035156 51.871094 125.617188 51.871094 Z M 125.617188 51.871094 " fill-opacity="1" fill-rule="nonzero"/><path fill="rgb(0.389099%, 90.979004%, 99.609375%)" d="M 137.996094 68.519531 L 131.429688 68.519531 C 128.949219 68.519531 128.949219 64.808594 131.429688 64.808594 L 137.996094 64.808594 C 140.480469 64.808594 140.480469 68.519531 137.996094 68.519531 Z M 137.996094 68.519531 " fill-opacity="1" fill-rule="nonzero"/><path fill="rgb(0.389099%, 90.979004%, 99.609375%)" d="M 130.757812 89.238281 C 130.339844 89.238281 129.933594 89.097656 129.605469 88.835938 L 124.460938 84.765625 C 123.65625 84.128906 123.519531 82.960938 124.15625 82.160156 C 124.796875 81.355469 125.964844 81.21875 126.773438 81.855469 L 131.917969 85.929688 C 133.296875 87.023438 132.519531 89.238281 130.757812 89.238281 Z M 130.757812 89.238281 " fill-opacity="1" fill-rule="nonzero"/><path fill="rgb(0.389099%, 90.979004%, 99.609375%)" d="M 21.027344 79.996094 C 18.917969 79.996094 17.015625 78.730469 16.210938 76.785156 C 15.402344 74.84375 15.851562 72.609375 17.339844 71.125 C 18.832031 69.636719 21.074219 69.191406 23.019531 69.996094 C 24.96875 70.800781 26.238281 72.695312 26.238281 74.796875 C 26.230469 77.664062 23.902344 79.988281 21.027344 79.996094 Z M 21.027344 73.300781 C 19.699219 73.300781 19.035156 74.898438 19.972656 75.835938 C 20.910156 76.769531 22.515625 76.105469 22.515625 74.785156 C 22.515625 73.964844 21.847656 73.300781 21.027344 73.300781 Z M 21.027344 73.300781 " fill-opacity="1" fill-rule="nonzero"/></svg>