<svg xmlns="http://www.w3.org/2000/svg" xmlns:xlink="http://www.w3.org/1999/xlink" width="200" zoomAndPan="magnify" viewBox="0 0 150 149.999998" height="200" preserveAspectRatio="xMidYMid meet" version="1.0"><defs><clipPath id="id1"><path d="M 16 18.074219 L 136 18.074219 L 136 100 L 16 100 Z M 16 18.074219 " clip-rule="nonzero"/></clipPath><clipPath id="id2"><path d="M 4.484375 122 L 145.484375 122 L 145.484375 132.074219 L 4.484375 132.074219 Z M 4.484375 122 " clip-rule="nonzero"/></clipPath></defs><path fill="rgb(0.389099%, 90.979004%, 99.609375%)" d="M 20.882812 28.570312 C 19.992188 28.570312 19.269531 29.296875 19.269531 30.1875 L 19.269531 87.757812 C 19.269531 88.648438 19.992188 89.375 20.882812 89.375 L 130.855469 89.375 C 131.75 89.375 132.476562 88.648438 132.476562 87.757812 L 132.476562 30.1875 C 132.476562 29.296875 131.75 28.570312 130.855469 28.570312 Z M 130.855469 91.929688 L 20.882812 91.929688 C 18.589844 91.929688 16.714844 90.058594 16.714844 87.757812 L 16.714844 30.1875 C 16.714844 27.886719 18.589844 26.015625 20.882812 26.015625 L 130.855469 26.015625 C 133.15625 26.015625 135.027344 27.886719 135.027344 30.1875 L 135.027344 87.757812 C 135.027344 90.058594 133.15625 91.929688 130.855469 91.929688 " fill-opacity="1" fill-rule="nonzero"/><g clip-path="url(#id1)"><path fill="rgb(0.389099%, 90.979004%, 99.609375%)" d="M 20.863281 20.652344 C 19.972656 20.652344 19.246094 21.378906 19.246094 22.273438 L 19.246094 95.675781 C 19.246094 96.570312 19.972656 97.296875 20.863281 97.296875 L 130.878906 97.296875 C 131.773438 97.296875 132.496094 96.570312 132.496094 95.675781 L 132.496094 22.273438 C 132.496094 21.378906 131.773438 20.652344 130.878906 20.652344 Z M 130.878906 99.851562 L 20.863281 99.851562 C 18.566406 99.851562 16.695312 97.976562 16.695312 95.675781 L 16.695312 22.273438 C 16.695312 19.96875 18.566406 18.097656 20.863281 18.097656 L 130.878906 18.097656 C 133.179688 18.097656 135.046875 19.96875 135.046875 22.273438 L 135.046875 95.675781 C 135.046875 97.976562 133.179688 99.851562 130.878906 99.851562 " fill-opacity="1" fill-rule="nonzero"/></g><path fill="rgb(0.389099%, 90.979004%, 99.609375%)" d="M 20.671875 100.175781 C 19.582031 100.175781 18.167969 101.078125 17.710938 102.0625 L 8.328125 122.15625 C 8.183594 122.464844 8.175781 122.695312 8.234375 122.785156 C 8.289062 122.875 8.5 122.964844 8.839844 122.964844 L 141.152344 122.964844 C 141.472656 122.964844 141.722656 122.878906 141.820312 122.738281 C 141.914062 122.597656 141.898438 122.335938 141.773438 122.035156 L 133.679688 102.0625 C 133.277344 101.074219 131.945312 100.175781 130.878906 100.175781 Z M 141.152344 125.519531 L 8.839844 125.519531 C 7.636719 125.519531 6.632812 125.019531 6.078125 124.15625 C 5.53125 123.289062 5.507812 122.167969 6.015625 121.074219 L 15.398438 100.980469 C 16.277344 99.097656 18.59375 97.621094 20.671875 97.621094 L 130.878906 97.621094 C 132.984375 97.621094 135.25 99.148438 136.042969 101.101562 L 144.140625 121.074219 C 144.585938 122.179688 144.511719 123.304688 143.933594 124.164062 C 143.359375 125.023438 142.34375 125.519531 141.152344 125.519531 " fill-opacity="1" fill-rule="nonzero"/><g clip-path="url(#id2)"><path fill="rgb(0.389099%, 90.979004%, 99.609375%)" d="M 8.839844 125.519531 C 7.949219 125.519531 7.222656 126.246094 7.222656 127.136719 L 7.222656 127.933594 C 7.222656 128.824219 7.949219 129.550781 8.839844 129.550781 L 141.132812 129.550781 C 142.023438 129.550781 142.746094 128.824219 142.746094 127.933594 L 142.746094 127.136719 C 142.746094 126.246094 142.023438 125.519531 141.132812 125.519531 Z M 141.132812 132.105469 L 8.839844 132.105469 C 6.542969 132.105469 4.671875 130.234375 4.671875 127.933594 L 4.671875 127.136719 C 4.671875 124.835938 6.542969 122.964844 8.839844 122.964844 L 141.132812 122.964844 C 143.429688 122.964844 145.296875 124.835938 145.296875 127.136719 L 145.296875 127.933594 C 145.296875 130.234375 143.429688 132.105469 141.132812 132.105469 " fill-opacity="1" fill-rule="nonzero"/></g><path fill="rgb(0.389099%, 90.979004%, 99.609375%)" d="M 45.855469 80.730469 C 45.527344 80.730469 45.203125 80.605469 44.953125 80.359375 C 44.457031 79.859375 44.457031 79.050781 44.953125 78.550781 L 64.847656 58.625 C 65.347656 58.128906 66.152344 58.128906 66.652344 58.625 L 74.269531 66.257812 L 92.464844 47.769531 C 92.960938 47.265625 93.765625 47.261719 94.269531 47.757812 C 94.773438 48.25 94.777344 49.058594 94.285156 49.5625 L 75.183594 68.964844 C 74.945312 69.207031 74.621094 69.347656 74.28125 69.347656 C 74.28125 69.347656 74.277344 69.347656 74.277344 69.347656 C 73.9375 69.347656 73.613281 69.210938 73.375 68.972656 L 65.75 61.335938 L 46.753906 80.359375 C 46.507812 80.605469 46.179688 80.730469 45.855469 80.730469 " fill-opacity="1" fill-rule="nonzero"/><path fill="rgb(0.389099%, 90.979004%, 99.609375%)" d="M 90.839844 43.914062 L 97.78125 50.636719 L 100.101562 41.273438 Z M 98.488281 54.371094 C 98.160156 54.371094 97.84375 54.246094 97.601562 54.011719 L 87.476562 44.210938 C 87.148438 43.890625 87.011719 43.421875 87.125 42.980469 C 87.234375 42.539062 87.574219 42.1875 88.011719 42.0625 L 101.523438 38.214844 C 101.957031 38.089844 102.429688 38.207031 102.753906 38.523438 C 103.085938 38.839844 103.21875 39.308594 103.109375 39.75 L 99.726562 53.402344 C 99.617188 53.847656 99.28125 54.195312 98.839844 54.324219 C 98.726562 54.355469 98.605469 54.371094 98.488281 54.371094 " fill-opacity="1" fill-rule="nonzero"/><path fill="rgb(0.389099%, 90.979004%, 99.609375%)" d="M 45.863281 60.449219 C 44.078125 60.449219 42.382812 60.050781 40.859375 59.34375 L 46.175781 49.570312 L 57.757812 49.570312 C 57.210938 55.660156 52.085938 60.449219 45.863281 60.449219 Z M 33.917969 48.484375 C 33.917969 44.457031 35.917969 40.890625 38.972656 38.722656 L 43.839844 48.519531 L 38.667969 58.027344 C 35.785156 55.839844 33.917969 52.378906 33.917969 48.484375 Z M 57.71875 47.015625 L 45.941406 47.015625 L 41.199219 37.472656 C 42.632812 36.859375 44.210938 36.519531 45.863281 36.519531 C 51.957031 36.519531 56.988281 41.109375 57.71875 47.015625 Z M 45.863281 33.964844 C 43.398438 33.964844 41.074219 34.585938 39.039062 35.679688 C 38.996094 35.695312 38.953125 35.707031 38.910156 35.730469 C 38.820312 35.773438 38.742188 35.828125 38.667969 35.886719 C 34.3125 38.394531 31.367188 43.101562 31.367188 48.484375 C 31.367188 56.492188 37.871094 63.003906 45.863281 63.003906 C 53.855469 63.003906 60.363281 56.492188 60.363281 48.484375 C 60.363281 40.480469 53.855469 33.964844 45.863281 33.964844 " fill-opacity="1" fill-rule="nonzero"/><path fill="rgb(0.389099%, 90.979004%, 99.609375%)" d="M 110.019531 79.585938 L 113.558594 79.585938 L 113.558594 60.984375 L 110.019531 60.984375 Z M 114.835938 82.140625 L 108.742188 82.140625 C 108.035156 82.140625 107.46875 81.570312 107.46875 80.863281 L 107.46875 59.703125 C 107.46875 59 108.035156 58.425781 108.742188 58.425781 L 114.835938 58.425781 C 115.539062 58.425781 116.109375 59 116.109375 59.703125 L 116.109375 80.863281 C 116.109375 81.570312 115.539062 82.140625 114.835938 82.140625 " fill-opacity="1" fill-rule="nonzero"/><path fill="rgb(0.389099%, 90.979004%, 99.609375%)" d="M 99.902344 79.585938 L 103.445312 79.585938 L 103.445312 66.585938 L 99.902344 66.585938 Z M 104.71875 82.140625 L 98.628906 82.140625 C 97.921875 82.140625 97.351562 81.570312 97.351562 80.863281 L 97.351562 65.308594 C 97.351562 64.601562 97.921875 64.03125 98.628906 64.03125 L 104.71875 64.03125 C 105.425781 64.03125 105.996094 64.601562 105.996094 65.308594 L 105.996094 80.863281 C 105.996094 81.570312 105.425781 82.140625 104.71875 82.140625 " fill-opacity="1" fill-rule="nonzero"/><path fill="rgb(0.389099%, 90.979004%, 99.609375%)" d="M 89.785156 79.585938 L 93.332031 79.585938 L 93.332031 71.886719 L 89.785156 71.886719 Z M 94.605469 82.140625 L 88.511719 82.140625 C 87.808594 82.140625 87.234375 81.570312 87.234375 80.863281 L 87.234375 70.609375 C 87.234375 69.90625 87.808594 69.332031 88.511719 69.332031 L 94.605469 69.332031 C 95.3125 69.332031 95.882812 69.90625 95.882812 70.609375 L 95.882812 80.863281 C 95.882812 81.570312 95.3125 82.140625 94.605469 82.140625 " fill-opacity="1" fill-rule="nonzero"/></svg>